# xmcd
#
# Track frame offsets:
#	150
#	23525
#	35059
#	45467
#	56382
#	70142
#	81209
#	92296
#	102501
#	114880
#	124264
#	134047
#	147930
#	162306
#	176751
#	194191
#	214671
#	225426
#	238431
#	253146
#
# Disc length: 3622 seconds
#
# Revision: 1
# Processed by: cddbd v1.5.2PL0 Copyright (c) Steve Scherf et al.
# Submitted via: audiograbber 1.83.01
#
DISCID=210e2414
DTITLE=Various Artist - The Best Of County Party - CD 01
DYEAR=2014
DGENRE=Country
TTITLE0=Bob Dylan - House Of The Risin' Sun
TTITLE1=Kenny Rogers - Me And Bobby Mc Gee
TTITLE2=Patsy Cline - Three Cigarettes In An Ashtray
TTITLE3=Roy Orbison - Only The Lonely
TTITLE4=Elvis Presley - Lonesome Cow Boy
TTITLE5=Jack Greene - There Goes My Everything
TTITLE6=Conway Twitty - It's Only Make Believe
TTITLE7=Chet Atkins - Country Gentleman
TTITLE8=Johnny Paycheck - Take This Job And Shove It
TTITLE9=Webb Pierce - In The Jailhouse Now
TTITLE10=Mickey Gilley - Fraulein
TTITLE11=Alison Brown - Fair Weather
TTITLE12=TG Sheppard - Do You Wanna Go To Heaven
TTITLE13=Doug Stone - Why Didn't I Think Of That
TTITLE14=Tom Freund - Fire Trucks
TTITLE15=Jeffrey Foucault - Passerines
TTITLE16=Ferlin Husky - Wings Of A Dove
TTITLE17=Gene Pitney - Town Withour Pity
TTITLE18=Brewer and Shipley - One Toke Over The Line
TTITLE19=Alabama - I Wanna Be With You Tonight
EXTD=
EXTT0=
EXTT1=
EXTT2=
EXTT3=
EXTT4=
EXTT5=
EXTT6=
EXTT7=
EXTT8=
EXTT9=
EXTT10=
EXTT11=
EXTT12=
EXTT13=
EXTT14=
EXTT15=
EXTT16=
EXTT17=
EXTT18=
EXTT19=
PLAYORDER=
